<svg xmlns="http://www.w3.org/2000/svg" width="24" height="24" fill="none" viewBox="0 0 24 24"><path fill="url(#a)" d="M18.876 22.068c1.305-2.508 1.879-4.426 1.798-7.59-.077-2.99-1.582-6.478-4.584-8.02C20.16 5.801 24 8.993 24 13.592c0 3.004-2.096 6.76-5.125 8.476"/><path fill="url(#b)" d="M12.826 11.048c-.042.486-.27.657-.69.657-.892-.08-1.081-1.033-1.081-1.502.122-1.743 1.595-2.508 2.84-2.508 1.784 0 3.718 1.824 3.663 4.211-.06 2.669-2.163 4.948-5.38 5.042-3.219.014-5.923-2.83-5.95-6.973 0-2.494 1.109-4.707 2.177-6.222C9.743 1.956 12.23.038 14.935.038c3.692 0 6.937 3.03 8.302 6.732-2.569-2.052-4.38-3.004-7.044-3.03-2.772-.081-6.558 1.81-7.342 5.51-.514 2.978 1.34 5.076 3.678 5.016 2.084-.1 3.137-2.588 1.77-3.714-.454-.376-1.378-.322-1.473.496"/><path fill="url(#c)" d="M18.787 15.686c-1.65 2.52-4.34 4.72-9.072 4.72-2.312 0-5.138-.738-7.64-2.347C3.55 20.862 7.808 24 11.797 24c4.76 0 7.139-4.156 6.99-8.313"/><path fill="url(#d)" d="M8.537 0C2.853 1.674.127 5.927.005 10.286c-.162 3.593 3.313 8.917 9.073 7.804-3.38-1.462-5.219-4.76-5.34-8.06C3.658 6.42 5.4 2.696 8.537 0"/><defs><radialGradient id="a" cx="0" cy="0" r="1" gradientTransform="matrix(0 11.9999 -12 0 12 12)" gradientUnits="userSpaceOnUse"><stop stop-color="#b8f44a"/><stop offset=".2" stop-color="#87dd2a"/><stop offset=".45" stop-color="#5db122"/><stop offset=".7" stop-color="#3f8d23"/><stop offset="1" stop-color="#2b651d"/></radialGradient><radialGradient id="b" cx="0" cy="0" r="1" gradientTransform="matrix(0 11.9999 -12 0 12 12)" gradientUnits="userSpaceOnUse"><stop stop-color="#b8f44a"/><stop offset=".2" stop-color="#87dd2a"/><stop offset=".45" stop-color="#5db122"/><stop offset=".7" stop-color="#3f8d23"/><stop offset="1" stop-color="#2b651d"/></radialGradient><radialGradient id="c" cx="0" cy="0" r="1" gradientTransform="matrix(0 11.9999 -12 0 12 12)" gradientUnits="userSpaceOnUse"><stop stop-color="#b8f44a"/><stop offset=".2" stop-color="#87dd2a"/><stop offset=".45" stop-color="#5db122"/><stop offset=".7" stop-color="#3f8d23"/><stop offset="1" stop-color="#2b651d"/></radialGradient><radialGradient id="d" cx="0" cy="0" r="1" gradientTransform="matrix(0 11.9999 -12 0 12 12)" gradientUnits="userSpaceOnUse"><stop stop-color="#b8f44a"/><stop offset=".2" stop-color="#87dd2a"/><stop offset=".45" stop-color="#5db122"/><stop offset=".7" stop-color="#3f8d23"/><stop offset="1" stop-color="#2b651d"/></radialGradient></defs></svg>